# xmcd CD database file
#
# Track frame offsets:
#	150
#	27975
#	47640
#	69364
#	90935
#	118587
#	142605
#	157214
#	181680
#	196822
#	229114
#	261174
#	278646
#	302671
#
# Disc length: 4310 seconds
#
# Revision: 0
# Processed by: cddbd v1.5.2PL0 Copyright (c) Steve Scherf et al.
# Submitted via: CDex 1.70beta2
#
DISCID=ae10d40e
DTITLE=The Durutti Column - Love In The Time of Recession
DYEAR=2009
DGENRE=New Age
TTITLE0=In Memory of Anthony
TTITLE1=Rant
TTITLE2=More Rainbows
TTITLE3=I'm Alive
TTITLE4=For Bruce
TTITLE5=Painting
TTITLE6=Wild Beast Tamed
TTITLE7=Rainbow Maker
TTITLE8=My Poppy
TTITLE9=Loser
TTITLE10=Lock-Down
TTITLE11=The Secret Between The Blade And Me
TTITLE12=Duet For Piano And Guitar
TTITLE13=Everybody's Laughing (I Don't Care)
EXTD=YEAR: 2009
EXTT0=
EXTT1=
EXTT2=
EXTT3=
EXTT4=
EXTT5=
EXTT6=
EXTT7=
EXTT8=
EXTT9=
EXTT10=
EXTT11=
EXTT12=
EXTT13=
PLAYORDER=
